<?xml version="1.0" encoding="UTF-8"?>
<svg width="1200" height="900" xmlns="http://www.w3.org/2000/svg">
  <!-- Background -->
  <rect width="1200" height="900" fill="#f5f5f5"/>

  <!-- Main Container -->
  <rect x="50" y="20" width="1100" height="850" fill="white" stroke="#333" stroke-width="2" rx="8"/>

  <!-- Header Area -->
  <rect x="50" y="20" width="1100" height="60" fill="#4A90E2" stroke="#333" stroke-width="2" rx="8 8 0 0"/>
  <text x="70" y="55" font-family="Arial, sans-serif" font-size="24" font-weight="bold" fill="white">MR0100 - 마루 헤더 관리</text>
  <text x="1050" y="55" font-family="Arial, sans-serif" font-size="14" fill="white">[닫기] [도움말]</text>

  <!-- Search Area -->
  <rect x="70" y="100" width="1060" height="100" fill="#FAFAFA" stroke="#DDD" stroke-width="1" rx="4"/>
  <text x="85" y="125" font-family="Arial, sans-serif" font-size="14" font-weight="bold" fill="#333">[검색 조건 영역] div_search</text>

  <!-- Search Components -->
  <text x="85" y="155" font-family="Arial, sans-serif" font-size="12" fill="#555">마루타입:</text>
  <rect x="150" y="142" width="120" height="24" fill="white" stroke="#AAA" stroke-width="1" rx="2"/>
  <text x="160" y="158" font-family="Arial, sans-serif" font-size="11" fill="#666">전체 ▼</text>
  <text x="155" y="138" font-family="Arial, sans-serif" font-size="9" fill="#999" opacity="0.7">data-testid="cbo_maruType"</text>

  <text x="300" y="155" font-family="Arial, sans-serif" font-size="12" fill="#555">상태:</text>
  <rect x="340" y="142" width="120" height="24" fill="white" stroke="#AAA" stroke-width="1" rx="2"/>
  <text x="350" y="158" font-family="Arial, sans-serif" font-size="11" fill="#666">전체 ▼</text>
  <text x="345" y="138" font-family="Arial, sans-serif" font-size="9" fill="#999" opacity="0.7">data-testid="cbo_status"</text>

  <text x="85" y="185" font-family="Arial, sans-serif" font-size="12" fill="#555">검색어(마루명):</text>
  <rect x="180" y="172" width="280" height="24" fill="white" stroke="#AAA" stroke-width="1" rx="2"/>
  <text x="185" y="178" font-family="Arial, sans-serif" font-size="9" fill="#999" opacity="0.7">data-testid="edt_searchWord"</text>

  <rect x="480" y="172" width="80" height="24" fill="#4CAF50" stroke="#45A049" stroke-width="1" rx="4"/>
  <text x="503" y="188" font-family="Arial, sans-serif" font-size="12" fill="white" font-weight="bold">검색</text>
  <text x="485" y="168" font-family="Arial, sans-serif" font-size="9" fill="#999" opacity="0.7">btn_search</text>

  <!-- Action Buttons Area -->
  <rect x="70" y="220" width="1060" height="60" fill="#FAFAFA" stroke="#DDD" stroke-width="1" rx="4"/>
  <text x="85" y="245" font-family="Arial, sans-serif" font-size="14" font-weight="bold" fill="#333">[액션 버튼 영역] div_actions</text>

  <rect x="85" y="252" width="60" height="22" fill="#2196F3" stroke="#1976D2" stroke-width="1" rx="3"/>
  <text x="103" y="267" font-family="Arial, sans-serif" font-size="11" fill="white" font-weight="bold">신규</text>
  <text x="90" y="248" font-family="Arial, sans-serif" font-size="8" fill="#999" opacity="0.7">btn_new</text>

  <rect x="155" y="252" width="60" height="22" fill="#FF9800" stroke="#F57C00" stroke-width="1" rx="3"/>
  <text x="173" y="267" font-family="Arial, sans-serif" font-size="11" fill="white" font-weight="bold">수정</text>
  <text x="160" y="248" font-family="Arial, sans-serif" font-size="8" fill="#999" opacity="0.7">btn_edit</text>

  <rect x="225" y="252" width="60" height="22" fill="#F44336" stroke="#D32F2F" stroke-width="1" rx="3"/>
  <text x="243" y="267" font-family="Arial, sans-serif" font-size="11" fill="white" font-weight="bold">삭제</text>
  <text x="230" y="248" font-family="Arial, sans-serif" font-size="8" fill="#999" opacity="0.7">btn_delete</text>

  <rect x="295" y="252" width="80" height="22" fill="#9C27B0" stroke="#7B1FA2" stroke-width="1" rx="3"/>
  <text x="307" y="267" font-family="Arial, sans-serif" font-size="11" fill="white" font-weight="bold">상태변경</text>
  <text x="300" y="248" font-family="Arial, sans-serif" font-size="8" fill="#999" opacity="0.7">btn_status</text>

  <text x="980" y="267" font-family="Arial, sans-serif" font-size="12" fill="#666">총 50건 표시</text>
  <text x="990" y="248" font-family="Arial, sans-serif" font-size="8" fill="#999" opacity="0.7">st_count</text>

  <!-- Grid Area -->
  <rect x="70" y="300" width="1060" height="260" fill="white" stroke="#DDD" stroke-width="1" rx="4"/>
  <text x="85" y="320" font-family="Arial, sans-serif" font-size="14" font-weight="bold" fill="#333">[마루 목록 그리드] grd_maruList</text>
  <text x="85" y="335" font-family="Arial, sans-serif" font-size="10" fill="#999">Dataset: ds_maruList</text>

  <!-- Grid Header -->
  <rect x="85" y="340" width="1030" height="30" fill="#E3F2FD" stroke="#BBB" stroke-width="1"/>
  <line x1="115" y1="340" x2="115" y2="370" stroke="#BBB" stroke-width="1"/>
  <line x1="245" y1="340" x2="245" y2="370" stroke="#BBB" stroke-width="1"/>
  <line x1="485" y1="340" x2="485" y2="370" stroke="#BBB" stroke-width="1"/>
  <line x1="585" y1="340" x2="585" y2="370" stroke="#BBB" stroke-width="1"/>
  <line x1="715" y1="340" x2="715" y2="370" stroke="#BBB" stroke-width="1"/>
  <line x1="785" y1="340" x2="785" y2="370" stroke="#BBB" stroke-width="1"/>
  <line x1="915" y1="340" x2="915" y2="370" stroke="#BBB" stroke-width="1"/>

  <text x="95" y="358" font-family="Arial, sans-serif" font-size="11" font-weight="bold" fill="#333">선</text>
  <text x="155" y="358" font-family="Arial, sans-serif" font-size="11" font-weight="bold" fill="#333">마루ID</text>
  <text x="325" y="358" font-family="Arial, sans-serif" font-size="11" font-weight="bold" fill="#333">마루명</text>
  <text x="505" y="358" font-family="Arial, sans-serif" font-size="11" font-weight="bold" fill="#333">타입</text>
  <text x="625" y="358" font-family="Arial, sans-serif" font-size="11" font-weight="bold" fill="#333">상태</text>
  <text x="735" y="358" font-family="Arial, sans-serif" font-size="11" font-weight="bold" fill="#333">버전</text>
  <text x="835" y="358" font-family="Arial, sans-serif" font-size="11" font-weight="bold" fill="#333">시작일</text>

  <!-- Grid Rows (Sample Data) -->
  <rect x="85" y="370" width="1030" height="25" fill="#FAFAFA" stroke="#DDD" stroke-width="1"/>
  <circle cx="100" cy="382" r="5" fill="#2196F3"/>
  <text x="125" y="387" font-family="Arial, sans-serif" font-size="10" fill="#333">DEPT_001</text>
  <text x="260" y="387" font-family="Arial, sans-serif" font-size="10" fill="#333">부서코드</text>
  <text x="505" y="387" font-family="Arial, sans-serif" font-size="10" fill="#333">CODE</text>
  <text x="625" y="387" font-family="Arial, sans-serif" font-size="10" fill="#4CAF50">INUSE</text>
  <text x="745" y="387" font-family="Arial, sans-serif" font-size="10" fill="#333">2</text>
  <text x="835" y="387" font-family="Arial, sans-serif" font-size="10" fill="#333">2025-01-01</text>

  <rect x="85" y="395" width="1030" height="25" fill="white" stroke="#DDD" stroke-width="1"/>
  <circle cx="100" cy="407" r="5" fill="#CCC"/>
  <text x="125" y="412" font-family="Arial, sans-serif" font-size="10" fill="#333">USER_ROLE</text>
  <text x="260" y="412" font-family="Arial, sans-serif" font-size="10" fill="#333">사용자권한코드</text>
  <text x="505" y="412" font-family="Arial, sans-serif" font-size="10" fill="#333">CODE</text>
  <text x="625" y="412" font-family="Arial, sans-serif" font-size="10" fill="#2196F3">CREATED</text>
  <text x="745" y="412" font-family="Arial, sans-serif" font-size="10" fill="#333">1</text>
  <text x="835" y="412" font-family="Arial, sans-serif" font-size="10" fill="#333">2025-02-01</text>

  <rect x="85" y="420" width="1030" height="25" fill="#FAFAFA" stroke="#DDD" stroke-width="1"/>
  <circle cx="100" cy="432" r="5" fill="#CCC"/>
  <text x="125" y="437" font-family="Arial, sans-serif" font-size="10" fill="#333">SALARY_RULE</text>
  <text x="260" y="437" font-family="Arial, sans-serif" font-size="10" fill="#333">급여계산룰</text>
  <text x="505" y="437" font-family="Arial, sans-serif" font-size="10" fill="#333">RULE</text>
  <text x="625" y="437" font-family="Arial, sans-serif" font-size="10" fill="#4CAF50">INUSE</text>
  <text x="745" y="437" font-family="Arial, sans-serif" font-size="10" fill="#333">1</text>
  <text x="835" y="437" font-family="Arial, sans-serif" font-size="10" fill="#333">2025-01-15</text>

  <!-- Detail Area -->
  <rect x="70" y="580" width="1060" height="220" fill="#FAFAFA" stroke="#DDD" stroke-width="1" rx="4"/>
  <text x="85" y="600" font-family="Arial, sans-serif" font-size="14" font-weight="bold" fill="#333">[상세 정보 영역] div_detail</text>
  <text x="85" y="615" font-family="Arial, sans-serif" font-size="10" fill="#999">Dataset: ds_maruDetail</text>

  <!-- Detail Fields -->
  <text x="95" y="640" font-family="Arial, sans-serif" font-size="12" fill="#333">마루ID*:</text>
  <rect x="160" y="627" width="200" height="24" fill="white" stroke="#AAA" stroke-width="1" rx="2"/>
  <text x="170" y="643" font-family="Arial, sans-serif" font-size="11" fill="#666">DEPT_001</text>
  <text x="165" y="623" font-family="Arial, sans-serif" font-size="8" fill="#999" opacity="0.7">edt_maruId</text>

  <rect x="380" y="627" width="90" height="24" fill="#E3F2FD" stroke="#2196F3" stroke-width="1" rx="3"/>
  <text x="395" y="643" font-family="Arial, sans-serif" font-size="10" fill="#2196F3" font-weight="bold">중복확인</text>
  <text x="385" y="623" font-family="Arial, sans-serif" font-size="8" fill="#999" opacity="0.7">btn_checkDup</text>

  <text x="95" y="670" font-family="Arial, sans-serif" font-size="12" fill="#333">마루명*:</text>
  <rect x="160" y="657" width="310" height="24" fill="white" stroke="#AAA" stroke-width="1" rx="2"/>
  <text x="170" y="673" font-family="Arial, sans-serif" font-size="11" fill="#666">부서코드</text>
  <text x="165" y="653" font-family="Arial, sans-serif" font-size="8" fill="#999" opacity="0.7">edt_maruName</text>

  <text x="95" y="700" font-family="Arial, sans-serif" font-size="12" fill="#333">마루타입*:</text>
  <rect x="175" y="687" width="100" height="24" fill="white" stroke="#AAA" stroke-width="1" rx="2"/>
  <text x="185" y="703" font-family="Arial, sans-serif" font-size="11" fill="#666">CODE ▼</text>
  <text x="180" y="683" font-family="Arial, sans-serif" font-size="8" fill="#999" opacity="0.7">cbo_maruTypeDetail</text>

  <text x="310" y="700" font-family="Arial, sans-serif" font-size="12" fill="#333">상태:</text>
  <rect x="355" y="687" width="80" height="24" fill="#E8F5E9" stroke="#4CAF50" stroke-width="1" rx="2"/>
  <text x="365" y="703" font-family="Arial, sans-serif" font-size="11" fill="#4CAF50" font-weight="bold">INUSE</text>
  <text x="360" y="683" font-family="Arial, sans-serif" font-size="8" fill="#999" opacity="0.7">st_status (읽기전용)</text>

  <text x="95" y="730" font-family="Arial, sans-serif" font-size="12" fill="#333">우선순위사용:</text>
  <rect x="190" y="717" width="60" height="24" fill="white" stroke="#AAA" stroke-width="1" rx="2"/>
  <text x="205" y="733" font-family="Arial, sans-serif" font-size="11" fill="#666">N ▼</text>
  <text x="195" y="713" font-family="Arial, sans-serif" font-size="8" fill="#999" opacity="0.7">cbo_priorityUse</text>

  <text x="280" y="730" font-family="Arial, sans-serif" font-size="12" fill="#333">버전:</text>
  <rect x="325" y="717" width="40" height="24" fill="#F5F5F5" stroke="#CCC" stroke-width="1" rx="2"/>
  <text x="337" y="733" font-family="Arial, sans-serif" font-size="11" fill="#999">2</text>
  <text x="330" y="713" font-family="Arial, sans-serif" font-size="8" fill="#999" opacity="0.7">st_version (읽기전용)</text>

  <text x="95" y="760" font-family="Arial, sans-serif" font-size="12" fill="#333">시작일:</text>
  <rect x="145" y="747" width="110" height="24" fill="white" stroke="#AAA" stroke-width="1" rx="2"/>
  <text x="155" y="763" font-family="Arial, sans-serif" font-size="11" fill="#666">2025-01-01</text>
  <text x="150" y="743" font-family="Arial, sans-serif" font-size="8" fill="#999" opacity="0.7">cal_startDate</text>

  <text x="280" y="760" font-family="Arial, sans-serif" font-size="12" fill="#333">종료일:</text>
  <rect x="330" y="747" width="110" height="24" fill="white" stroke="#AAA" stroke-width="1" rx="2"/>
  <text x="340" y="763" font-family="Arial, sans-serif" font-size="11" fill="#666">9999-12-31</text>
  <text x="335" y="743" font-family="Arial, sans-serif" font-size="8" fill="#999" opacity="0.7">cal_endDate</text>

  <!-- Bottom Buttons -->
  <rect x="95" y="775" width="60" height="22" fill="#4CAF50" stroke="#45A049" stroke-width="1" rx="3"/>
  <text x="113" y="790" font-family="Arial, sans-serif" font-size="11" fill="white" font-weight="bold">저장</text>
  <text x="100" y="771" font-family="Arial, sans-serif" font-size="8" fill="#999" opacity="0.7">btn_save</text>

  <rect x="165" y="775" width="60" height="22" fill="#F44336" stroke="#D32F2F" stroke-width="1" rx="3"/>
  <text x="183" y="790" font-family="Arial, sans-serif" font-size="11" fill="white" font-weight="bold">취소</text>
  <text x="170" y="771" font-family="Arial, sans-serif" font-size="8" fill="#999" opacity="0.7">btn_cancel</text>

  <rect x="235" y="775" width="70" height="22" fill="#9E9E9E" stroke="#757575" stroke-width="1" rx="3"/>
  <text x="251" y="790" font-family="Arial, sans-serif" font-size="11" fill="white" font-weight="bold">초기화</text>
  <text x="240" y="771" font-family="Arial, sans-serif" font-size="8" fill="#999" opacity="0.7">btn_reset</text>

  <!-- Status Bar -->
  <rect x="50" y="820" width="1100" height="50" fill="#424242" stroke="#333" stroke-width="2" rx="0 0 8 8"/>
  <text x="70" y="850" font-family="Arial, sans-serif" font-size="12" fill="#E0E0E0">준비 | 마지막 업데이트: 2025-10-05 14:30:00</text>
  <text x="85" y="835" font-family="Arial, sans-serif" font-size="9" fill="#999" opacity="0.7">div_statusBar</text>

  <!-- Data Flow Annotations -->
  <defs>
    <marker id="arrowhead" markerWidth="10" markerHeight="7" refX="9" refY="3.5" orient="auto">
      <polygon points="0 0, 10 3.5, 0 7" fill="#FF5722"/>
    </marker>
  </defs>

  <!-- Dataset Binding Arrows -->
  <line x1="600" y1="360" x2="600" y2="600" stroke="#FF5722" stroke-width="2" stroke-dasharray="5,5" marker-end="url(#arrowhead)" opacity="0.6"/>
  <text x="610" y="480" font-family="Arial, sans-serif" font-size="10" fill="#FF5722" font-weight="bold">Dataset 바인딩</text>
  <text x="610" y="495" font-family="Arial, sans-serif" font-size="9" fill="#FF5722">그리드 선택 → 상세정보</text>

  <!-- Focus Order Annotation -->
  <rect x="850" y="100" width="260" height="140" fill="#FFF9C4" stroke="#F9A825" stroke-width="2" rx="4" opacity="0.9"/>
  <text x="860" y="120" font-family="Arial, sans-serif" font-size="12" font-weight="bold" fill="#F57F17">포커스 순서 (Tab 키)</text>
  <text x="860" y="140" font-family="Arial, sans-serif" font-size="10" fill="#555">1. 검색 조건 (타입→상태→검색어)</text>
  <text x="860" y="158" font-family="Arial, sans-serif" font-size="10" fill="#555">2. 검색 버튼</text>
  <text x="860" y="176" font-family="Arial, sans-serif" font-size="10" fill="#555">3. 액션 버튼 (신규→수정→삭제→상태변경)</text>
  <text x="860" y="194" font-family="Arial, sans-serif" font-size="10" fill="#555">4. 그리드 셀</text>
  <text x="860" y="212" font-family="Arial, sans-serif" font-size="10" fill="#555">5. 상세정보 필드</text>
  <text x="860" y="230" font-family="Arial, sans-serif" font-size="10" fill="#555">6. 저장/취소/초기화 버튼</text>

  <!-- Interaction Points Legend -->
  <rect x="850" y="250" width="260" height="90" fill="#E1F5FE" stroke="#0277BD" stroke-width="2" rx="4" opacity="0.9"/>
  <text x="860" y="270" font-family="Arial, sans-serif" font-size="12" font-weight="bold" fill="#01579B">상호작용 포인트</text>
  <circle cx="865" cy="285" r="4" fill="#2196F3"/>
  <text x="875" y="290" font-family="Arial, sans-serif" font-size="10" fill="#555">클릭 가능 (버튼, 그리드 행)</text>
  <rect x="861" y="300" width="14" height="14" fill="white" stroke="#AAA" stroke-width="1"/>
  <text x="880" y="310" font-family="Arial, sans-serif" font-size="10" fill="#555">입력 가능 (텍스트, 콤보박스)</text>
  <rect x="861" y="320" width="14" height="14" fill="#F5F5F5" stroke="#CCC" stroke-width="1"/>
  <text x="880" y="330" font-family="Arial, sans-serif" font-size="10" fill="#555">읽기 전용 (상태, 버전)</text>

</svg>
