<?xml version="1.0" encoding="UTF-8"?>
<svg width="1000" height="800" xmlns="http://www.w3.org/2000/svg">
<rect width="1000" height="800" fill="#f5f5f5"/>
<rect x="20" y="20" width="960" height="760" fill="white" stroke="#ccc" stroke-width="2" rx="5"/>
<text x="500" y="50" text-anchor="middle" font="bold 20px sans-serif" fill="#333">CD0200 코드기본값관리</text>
<line x1="40" y1="60" x2="960" y2="60" stroke="#ddd"/>
<rect x="40" y="80" width="920" height="80" fill="#fafafa" stroke="#ddd" rx="3"/>
<text x="50" y="100" font="bold 16px sans-serif" fill="#555">검색 조건</text>
<text x="60" y="130" font="14px sans-serif" fill="#666">마루ID:</text>
<rect x="120" y="115" width="300" height="25" fill="white" stroke="#999" rx="2"/>
<rect x="440" y="115" width="70" height="25" fill="#4CAF50" stroke="#45a049" rx="3"/>
<text x="475" y="132" text-anchor="middle" font="12px sans-serif" fill="white">조회</text>
<rect x="520" y="115" width="70" height="25" fill="#2196F3" stroke="#1976D2" rx="3"/>
<text x="555" y="132" text-anchor="middle" font="12px sans-serif" fill="white">신규</text>
<rect x="600" y="115" width="70" height="25" fill="#f44336" stroke="#d32f2f" rx="3"/>
<text x="635" y="132" text-anchor="middle" font="12px sans-serif" fill="white">삭제</text>
<rect x="40" y="180" width="920" height="220" fill="#fafafa" stroke="#ddd" rx="3"/>
<text x="50" y="200" font="bold 16px sans-serif" fill="#555">코드 목록 (Grid)</text>
<rect x="60" y="210" width="880" height="30" fill="#e0e0e0" stroke="#ccc"/>
<text x="180" y="230" font="12px sans-serif">코드 | 순서 | 코드명 | 사용YN | 버전</text>
<rect x="40" y="420" width="920" height="340" fill="#fafafa" stroke="#ddd" rx="3"/>
<text x="50" y="440" font="bold 16px sans-serif" fill="#555">상세 정보</text>
<text x="70" y="490" font="14px sans-serif" fill="#666">코드:</text>
<rect x="120" y="475" width="250" height="25" fill="white" stroke="#999" rx="2"/>
<text x="70" y="530" font="14px sans-serif" fill="#666">코드명:</text>
<rect x="120" y="515" width="500" height="25" fill="white" stroke="#999" rx="2"/>
<rect x="60" y="600" width="880" height="120" fill="white" stroke="#ccc" rx="3"/>
<text x="70" y="620" font="bold 14px sans-serif">다국어 정보 (Tab)</text>
<rect x="380" y="730" width="100" height="30" fill="#4CAF50" stroke="#45a049" rx="3"/>
<text x="430" y="750" text-anchor="middle" font="bold 12px sans-serif" fill="white">저장</text>
<rect x="500" y="730" width="100" height="30" fill="#9E9E9E" stroke="#757575" rx="3"/>
<text x="550" y="750" text-anchor="middle" font="bold 12px sans-serif" fill="white">취소</text>
</svg>
